<?xml version="1.0" encoding="UTF-8" standalone="no"?>
<!-- Created with Inkscape (http://www.inkscape.org/) -->

<svg
   xmlns:osb="http://www.openswatchbook.org/uri/2009/osb"
   xmlns:dc="http://purl.org/dc/elements/1.1/"
   xmlns:cc="http://creativecommons.org/ns#"
   xmlns:rdf="http://www.w3.org/1999/02/22-rdf-syntax-ns#"
   xmlns:svg="http://www.w3.org/2000/svg"
   xmlns="http://www.w3.org/2000/svg"
   xmlns:sodipodi="http://sodipodi.sourceforge.net/DTD/sodipodi-0.dtd"
   xmlns:inkscape="http://www.inkscape.org/namespaces/inkscape"
   width="128"
   height="36"
   viewBox="0 0 33.866666 9.5249999"
   version="1.1"
   id="svg8"
   inkscape:version="0.92.4 (f8dce91, 2019-08-02)"
   sodipodi:docname="logo.svg">
  <defs
     id="defs2">
    <inkscape:perspective
       sodipodi:type="inkscape:persp3d"
       inkscape:vp_x="0 : 4.7624999 : 1"
       inkscape:vp_y="0 : 1000 : 0"
       inkscape:vp_z="37.041666 : 4.7624999 : 1"
       inkscape:persp3d-origin="18.520833 : 3.175 : 1"
       id="perspective6147" />
    <linearGradient
       id="linearGradient6027"
       osb:paint="solid">
      <stop
         style="stop-color:#009c00;stop-opacity:1;"
         offset="0"
         id="stop6025" />
    </linearGradient>
    <linearGradient
       id="linearGradient4546"
       osb:paint="solid">
      <stop
         style="stop-color:#000000;stop-opacity:1;"
         offset="0"
         id="stop4544" />
    </linearGradient>
  </defs>
  <sodipodi:namedview
     id="base"
     pagecolor="#ffffff"
     bordercolor="#666666"
     borderopacity="1.0"
     inkscape:pageopacity="0.0"
     inkscape:pageshadow="2"
     inkscape:zoom="8.4210526"
     inkscape:cx="64.178986"
     inkscape:cy="43.453123"
     inkscape:document-units="mm"
     inkscape:current-layer="g4559"
     showgrid="false"
     showguides="false"
     units="px"
     width="133px"
     borderlayer="false"
     inkscape:showpageshadow="true"
     showborder="true"
     inkscape:snap-page="false"
     inkscape:snap-grids="true"
     inkscape:snap-to-guides="true"
     inkscape:window-width="1629"
     inkscape:window-height="995"
     inkscape:window-x="51"
     inkscape:window-y="27"
     inkscape:window-maximized="1"
     inkscape:pagecheckerboard="true"
     inkscape:snap-global="false"
     inkscape:snap-center="true"
     inkscape:snap-midpoints="false"
     inkscape:snap-bbox="true" />
  <metadata
     id="metadata5">
    <rdf:RDF>
      <cc:Work
         rdf:about="">
        <dc:format>image/svg+xml</dc:format>
        <dc:type
           rdf:resource="http://purl.org/dc/dcmitype/StillImage" />
        <dc:title />
      </cc:Work>
    </rdf:RDF>
  </metadata>
  <g
     id="g4559"
     style="display:inline">
    <path
       style="font-style:normal;font-variant:normal;font-weight:normal;font-stretch:normal;font-size:4.85069466px;line-height:1.25;font-family:Roboto;-inkscape-font-specification:'Roboto, Normal';font-variant-ligatures:normal;font-variant-caps:normal;font-variant-numeric:normal;font-feature-settings:normal;text-align:start;letter-spacing:0px;word-spacing:0px;writing-mode:lr-tb;text-anchor:start;display:inline;fill:#ffffff;fill-opacity:1;stroke:none;stroke-width:0.40249062"
       d="M 5.7164468,0.4619874 A 4.6107011,4.3005004 0 0 0 1.1053589,4.7625 4.6107011,4.3005004 0 0 0 5.7164468,9.0630126 4.6107011,4.3005004 0 0 0 10.327018,4.7625 4.6107011,4.3005004 0 0 0 5.7164468,0.4619874 Z M 27.118758,2.7460856 V 6.7272379 H 27.51925 V 2.7460856 Z M 23.83317,2.9016318 c -0.07792,0 -0.136849,0.026532 -0.17725,0.080098 -0.03896,0.053567 -0.05839,0.1191292 -0.05839,0.1968873 0,0.077758 0.01944,0.1429814 0.05839,0.1948202 0.0404,0.051839 0.09933,0.077515 0.17725,0.077515 0.07792,0 0.137366,-0.025675 0.177767,-0.077515 0.0404,-0.051839 0.06046,-0.117062 0.06046,-0.1948202 0,-0.077758 -0.02006,-0.1433205 -0.06046,-0.1968873 -0.0404,-0.053566 -0.09985,-0.080098 -0.177767,-0.080098 z m -11.750187,0.051676 v 3.7739298 h 0.415479 V 5.2575603 l -0.04082,-1.578715 1.032495,3.0483926 h 0.31781 l 1.034562,-3.0561441 -0.03876,1.5864665 v 1.4696776 h 0.415478 V 2.9533081 H 14.680241 L 13.649813,6.0327067 12.619902,2.9533081 Z m 17.295068,0 v 2.5559165 c 0,0.2125387 0.0291,0.3980997 0.08682,0.5570717 0.05916,0.1589723 0.139293,0.290953 0.240295,0.3963583 0.102444,0.1054055 0.2227,0.1851784 0.361217,0.2387452 0.138517,0.051839 0.287874,0.077515 0.448035,0.077515 0.152947,0 0.298667,-0.025675 0.437184,-0.077515 0.138517,-0.053567 0.259913,-0.1333397 0.363802,-0.2387452 0.105331,-0.1054053 0.189103,-0.237386 0.251148,-0.3963583 0.06204,-0.158972 0.09302,-0.344533 0.09302,-0.5570717 V 2.9533081 h -0.418063 v 2.5559165 c 0,0.1468763 -0.01704,0.2745777 -0.05168,0.3834389 -0.03463,0.1071335 -0.08379,0.19666 -0.147278,0.2692342 -0.06349,0.070846 -0.139985,0.123571 -0.229444,0.1581301 -0.08946,0.034559 -0.189031,0.052193 -0.29869,0.052193 -0.108215,0 -0.207164,-0.017634 -0.296622,-0.052193 -0.08802,-0.034559 -0.163373,-0.087284 -0.22686,-0.1581301 C 29.927448,6.0893235 29.877661,5.999797 29.841588,5.8926635 29.80696,5.7838023 29.789396,5.6561009 29.789396,5.5092246 V 2.9533081 Z m 2.96726,0 v 3.7739298 h 0.415997 V 2.9533081 Z M 7.1173949,2.9910321 c 0.1942174,0 0.3667305,0.02891 0.5183145,0.087333 0.1515843,0.058423 0.278737,0.135708 0.3813723,0.2320272 0.1042141,0.096319 0.1835087,0.2080262 0.2371947,0.3343465 0.053686,0.12632 0.080615,0.2564585 0.080615,0.3906737 H 7.8775553 c 0,-0.096319 -0.015962,-0.1855758 -0.047542,-0.267684 C 7.800012,3.6856208 7.7536467,3.6143071 7.6904867,3.5543051 7.6273264,3.4943029 7.5485486,3.4479379 7.4538084,3.4147787 7.3590683,3.3816195 7.246873,3.3651693 7.1173949,3.3651693 c -0.1215831,0 -0.22729,0.013952 -0.3172933,0.042375 -0.090003,0.028422 -0.1643023,0.067811 -0.2227255,0.1183392 -0.058423,0.048949 -0.1018024,0.1078026 -0.1302244,0.1756997 -0.028422,0.067897 -0.042892,0.1416796 -0.042892,0.2222087 0,0.072634 0.014957,0.1389523 0.044959,0.1989543 0.03158,0.060002 0.079955,0.1153533 0.144694,0.1658813 0.064739,0.050528 0.1475078,0.09741 0.2485636,0.1400431 0.1026353,0.042633 0.2247926,0.083515 0.3669027,0.12299 0.1957964,0.055265 0.3648356,0.1171046 0.5069459,0.1850017 0.1421101,0.066318 0.2593009,0.1421101 0.350883,0.2273763 0.093161,0.085266 0.1614604,0.1804942 0.205672,0.2862874 0.045791,0.1057931 0.06873,0.2259695 0.06873,0.3601847 0,0.1405313 -0.028422,0.2676839 -0.085266,0.3813719 -0.056844,0.1136879 -0.1381202,0.210409 -0.243913,0.2909381 -0.1042144,0.080529 -0.2303622,0.1433732 -0.3787884,0.1875854 -0.1468472,0.042633 -0.3108912,0.063562 -0.4924763,0.063562 -0.1057932,2e-7 -0.212017,-0.00996 -0.3178101,-0.030489 C 6.717563,6.4845311 6.6158465,6.4551042 6.5179483,6.4156291 6.4216291,6.3761541 6.3318846,6.3272911 6.2481974,6.2688679 6.1660893,6.210445 6.0942877,6.1426339 6.0327067,6.0652628 5.9711255,5.9878918 5.9227507,5.9011328 5.8880127,5.8048136 5.8532745,5.7084945 5.8358194,5.6022709 5.8358194,5.4870035 H 6.293156 c 0,0.1184252 0.022939,0.2206586 0.068729,0.3059245 0.04737,0.083687 0.1096976,0.1529911 0.1870689,0.2082562 0.07895,0.055265 0.1686946,0.096147 0.2697509,0.1229897 0.1026351,0.025265 0.2103517,0.038241 0.322461,0.038241 0.2400083,0 0.4234883,-0.048863 0.5513874,-0.1467612 0.1278993,-0.097898 0.1922364,-0.231539 0.1922364,-0.4004924 0,-0.080529 -0.012978,-0.1518425 -0.038241,-0.2134235 C 7.8228638,5.3401564 7.7794848,5.2843171 7.7163248,5.2337891 7.6547436,5.1816821 7.5709704,5.1333072 7.4651773,5.0890951 7.3593842,5.0433039 7.2252552,4.9969389 7.062618,4.9495687 6.8920856,4.9006197 6.7375155,4.8452686 6.5985637,4.7836873 6.4611904,4.7205273 6.3435117,4.6487258 6.2456135,4.5681967 6.1492943,4.4860885 6.0749951,4.3928414 6.022888,4.2886271 5.970781,4.184413 5.9448566,4.0652415 5.9448566,3.9310263 c 0,-0.1342152 0.027417,-0.2578653 0.082682,-0.3715536 C 6.084383,3.4442057 6.1641658,3.3444702 6.2668008,3.260783 6.3694361,3.1755168 6.4925981,3.1091987 6.6362875,3.0618288 6.7799766,3.0144586 6.9405466,2.9910321 7.1173949,2.9910321 Z M 4.810559,3.0380575 h 0.4568198 v 2.4422283 c 0,0.1705321 -0.026929,0.3221164 -0.080615,0.4547526 -0.053686,0.1310571 -0.1294784,0.2407547 -0.2273766,0.3291787 -0.096319,0.088424 -0.2115003,0.1552302 -0.3457155,0.2010214 -0.1326361,0.045791 -0.277732,0.06873 -0.4356322,0.06873 -0.1594792,2e-7 -0.30558,-0.019436 -0.4382161,-0.058911 C 3.6071872,6.4340028 3.4924943,6.3721631 3.3961751,6.2900555 3.2998559,6.2063683 3.2250687,6.1021542 3.1713826,5.977413 3.1176965,5.8510927 3.0907674,5.7034991 3.0907674,5.534546 H 3.54552 c 0,0.1089512 0.015962,0.2032032 0.047542,0.2821532 0.03158,0.07895 0.07496,0.1442636 0.1302247,0.1963704 0.055265,0.050528 0.1215832,0.088424 0.1989542,0.1136882 0.077371,0.023686 0.1626373,0.035657 0.2557984,0.035657 0.090003,0 0.1737765,-0.01447 0.2511475,-0.042892 0.077371,-0.030001 0.1441773,-0.07338 0.2010212,-0.1302245 0.056844,-0.056844 0.1012285,-0.1276408 0.1328086,-0.212907 0.03158,-0.085266 0.047542,-0.1839968 0.047542,-0.2961058 z m 13.637927,0.2056723 v 0.6790283 h -0.42633 v 0.3705198 h 0.42633 V 6.030123 c 0,0.1399643 0.01455,0.2582513 0.04341,0.3550169 0.02886,0.095038 0.06773,0.1717264 0.116789,0.2304769 0.04906,0.058751 0.106119,0.1003488 0.171049,0.1245402 0.06637,0.025919 0.136219,0.038758 0.209807,0.038758 0.07214,0 0.133467,-0.00599 0.183968,-0.018087 0.0505,-0.012097 0.09176,-0.023223 0.123506,-0.03359 V 6.3386311 c -0.0202,0.00518 -0.0493,0.012031 -0.08682,0.020672 -0.03607,0.00691 -0.07068,0.010335 -0.10387,0.010335 -0.03319,0 -0.06541,-0.00342 -0.09715,-0.010335 -0.0303,-0.00864 -0.05815,-0.025419 -0.08268,-0.049609 -0.02308,-0.024191 -0.0419,-0.05757 -0.05633,-0.100769 -0.01443,-0.044927 -0.02119,-0.1036426 -0.02119,-0.1762167 V 4.2932792 h 0.437183 V 3.9227594 h -0.43718 V 3.2437311 Z m -1.646927,0.6273517 c -0.141404,0 -0.270076,0.024821 -0.385507,0.074931 -0.113988,0.048383 -0.21117,0.1122336 -0.291971,0.1917197 -0.0808,0.077758 -0.14389,0.1660898 -0.18862,0.2645833 -0.04329,0.098494 -0.0646,0.1979515 -0.0646,0.298173 h 0.402559 c 0,-0.05875 0.01216,-0.1148985 0.03669,-0.1684652 0.02453,-0.053566 0.05851,-0.1003001 0.101802,-0.1400432 0.04473,-0.041471 0.09815,-0.07451 0.160197,-0.098702 0.06204,-0.024191 0.130125,-0.036173 0.205156,-0.036173 0.163046,0 0.286832,0.050157 0.370519,0.1503783 0.08369,0.098494 0.125574,0.2313303 0.125574,0.3989422 v 0.2206583 h -0.398425 c -0.160161,0 -0.305256,0.019685 -0.435116,0.059428 -0.129859,0.039743 -0.240968,0.098459 -0.333313,0.1762167 -0.0909,0.077758 -0.160748,0.1746483 -0.209806,0.2904215 -0.04906,0.1140452 -0.0739,0.246026 -0.0739,0.3963582 0,0.1157732 0.01881,0.2246456 0.05633,0.3265951 0.03751,0.1002215 0.09031,0.1876973 0.15813,0.2619997 0.06926,0.074302 0.152407,0.1330176 0.24908,0.1762164 0.09812,0.043199 0.206836,0.064596 0.326595,0.064596 0.07214,0 0.140743,-0.00941 0.205673,-0.028422 0.06493,-0.01728 0.125004,-0.041244 0.179834,-0.072347 0.05627,-0.032831 0.107306,-0.07015 0.153479,-0.1116211 0.04762,-0.043199 0.09013,-0.088221 0.12764,-0.1348754 0.0058,0.057022 0.01305,0.1123146 0.0217,0.1658814 0.0087,0.051839 0.02019,0.095149 0.03462,0.1297077 h 0.420129 v -0.041341 c -0.02742,-0.07603 -0.04862,-0.1660734 -0.06305,-0.2697509 -0.01299,-0.1054055 -0.01964,-0.2057191 -0.01964,-0.3007569 V 4.8115927 c 0,-0.1572443 -0.02131,-0.2943601 -0.06459,-0.4118613 C 17.565457,4.2822305 17.505383,4.1844842 17.42891,4.106726 17.352437,4.0272402 17.260141,3.9685246 17.151924,3.9305096 17.045151,3.8907665 16.928532,3.8710815 16.801559,3.8710815 Z m 3.871598,0 c -0.132746,0 -0.260277,0.032523 -0.382923,0.098185 -0.122645,0.063934 -0.231364,0.1574014 -0.326595,0.2800863 -0.09523,0.1226849 -0.171728,0.2740115 -0.229443,0.4537191 -0.05627,0.1797074 -0.08475,0.3832419 -0.08475,0.6113323 v 0.1090371 c 0,0.1969871 0.02546,0.378269 0.07597,0.544153 0.0505,0.1658837 0.122736,0.3095074 0.216524,0.4304646 0.09379,0.1192289 0.206144,0.2126959 0.337447,0.2800861 0.132746,0.06739 0.280854,0.1007692 0.443901,0.1007692 0.116874,0 0.221331,-0.015407 0.313676,-0.046509 0.09235,-0.029375 0.173728,-0.069262 0.244429,-0.1193723 0.07214,-0.051839 0.135232,-0.1096984 0.188619,-0.1736329 0.05339,-0.065662 0.09839,-0.1329367 0.135909,-0.2020548 L 21.361487,6.0094524 c -0.07359,0.1140452 -0.159232,0.2052836 -0.257349,0.2744018 -0.09812,0.069118 -0.217748,0.1038696 -0.359151,0.1038696 -0.106774,0 -0.203224,-0.024482 -0.288354,-0.072864 -0.08369,-0.048383 -0.155407,-0.1139451 -0.216008,-0.1968869 -0.05916,-0.082942 -0.105306,-0.1806882 -0.138493,-0.2930054 -0.03174,-0.1123172 -0.04931,-0.2331718 -0.05219,-0.3627686 h 1.586466 v -0.214974 c 0,-0.196987 -0.01881,-0.3791246 -0.05633,-0.5467366 C 21.542563,4.5328764 21.484254,4.387541 21.404895,4.2648561 21.326979,4.1421709 21.227408,4.0461364 21.106205,3.9770183 20.985003,3.9061721 20.840532,3.8710815 20.673157,3.8710815 Z m 2.378666,0 c -0.12986,0 -0.240344,0.033379 -0.331246,0.1007692 -0.0909,0.06739 -0.166258,0.1591453 -0.22686,0.2749185 L 22.487,3.9227581 h -0.389641 v 2.8044798 h 0.400492 v -1.990576 c 0.04329,-0.1226849 0.108248,-0.2204313 0.194821,-0.2930054 0.08802,-0.072574 0.200997,-0.1090374 0.339514,-0.1090374 0.03751,0 0.07088,0.00172 0.09973,0.00517 0.0303,0.00172 0.06304,0.00652 0.09767,0.013435 V 3.9072543 c -0.01443,-0.00864 -0.04052,-0.016343 -0.07803,-0.023254 -0.03752,-0.00864 -0.07088,-0.01292 -0.09974,-0.01292 z m 2.528011,0 c -0.141403,0 -0.269559,0.024821 -0.384989,0.074931 -0.113989,0.048383 -0.211688,0.1122336 -0.292489,0.1917197 -0.0808,0.077758 -0.143373,0.1660898 -0.188102,0.2645833 -0.04329,0.098494 -0.06511,0.1979515 -0.06511,0.298173 h 0.40256 c 0,-0.05875 0.01216,-0.1148985 0.03669,-0.1684652 0.02453,-0.053566 0.05852,-0.1003001 0.101803,-0.1400432 0.04473,-0.041471 0.09815,-0.07451 0.160196,-0.098702 0.06204,-0.024191 0.130643,-0.036173 0.205673,-0.036173 0.163046,0 0.286316,0.050157 0.370003,0.1503783 0.08369,0.098494 0.125574,0.2313303 0.125574,0.3989422 v 0.2206583 h -0.398425 c -0.160161,0 -0.30474,0.019685 -0.434599,0.059428 -0.12986,0.039743 -0.240968,0.098459 -0.333313,0.1762167 -0.0909,0.077758 -0.161265,0.1746483 -0.210323,0.2904215 -0.04906,0.1140452 -0.07338,0.246026 -0.07338,0.3963582 0,0.1157732 0.01881,0.2246456 0.05633,0.3265951 0.03751,0.1002215 0.09032,0.1876973 0.15813,0.2619997 0.06926,0.074302 0.15189,0.1330176 0.248564,0.1762164 0.09812,0.043199 0.207352,0.064596 0.327112,0.064596 0.07214,0 0.140742,-0.00941 0.205672,-0.028422 0.06493,-0.01728 0.124487,-0.041244 0.179317,-0.072347 0.05627,-0.032831 0.107823,-0.07015 0.153996,-0.1116211 0.04762,-0.043199 0.09012,-0.088221 0.127641,-0.1348754 0.0058,0.057022 0.01305,0.1123146 0.0217,0.1658814 0.0087,0.051839 0.02019,0.095149 0.03462,0.1297077 h 0.419612 v -0.041341 c -0.02741,-0.07603 -0.0481,-0.1660734 -0.06253,-0.2697509 -0.01299,-0.1054055 -0.01964,-0.2057191 -0.01964,-0.3007569 V 4.8115927 c 0,-0.1572443 -0.02183,-0.2943601 -0.06511,-0.4118613 C 26.343733,4.2822305 26.284175,4.1844842 26.207702,4.106726 26.131229,4.0272402 26.038933,3.9685246 25.930717,3.9305096 25.823943,3.8907665 25.706808,3.8710815 25.579834,3.8710815 Z m -1.950269,0.051677 v 2.8044798 h 0.400493 V 3.9227581 Z m -2.956408,0.342098 c 0.102445,0 0.188607,0.022252 0.257865,0.067179 0.06926,0.044927 0.125179,0.1036423 0.168465,0.1762165 0.04473,0.072574 0.07747,0.1549148 0.09767,0.2464966 0.02164,0.091582 0.03443,0.1841929 0.03876,0.2775024 v 0.036174 h -1.173055 c 0.01299,-0.1295969 0.03668,-0.2444602 0.07131,-0.3446817 0.03607,-0.1002215 0.08097,-0.1842741 0.134358,-0.2516642 0.05339,-0.067391 0.114086,-0.1184032 0.181901,-0.1529623 0.06782,-0.036287 0.141924,-0.05426 0.222726,-0.05426 z m 7.261571,0.6635253 v 0.3911906 h 1.056267 V 4.9283814 Z M 16.940051,5.3665975 h 0.333313 v 0.5751586 c -0.02164,0.053567 -0.05199,0.1054354 -0.09095,0.1555462 -0.03752,0.050111 -0.08242,0.095133 -0.134359,0.1348756 -0.05194,0.038015 -0.109629,0.068826 -0.173116,0.093017 -0.06349,0.024191 -0.131461,0.03669 -0.203605,0.03669 -0.07359,0 -0.138548,-0.012499 -0.19482,-0.03669 -0.05483,-0.025919 -0.101602,-0.059298 -0.14056,-0.1007689 -0.03752,-0.043199 -0.06547,-0.094212 -0.08423,-0.1529622 -0.01876,-0.058751 -0.02842,-0.1217454 -0.02842,-0.1891359 0,-0.1727956 0.06195,-0.3018697 0.186035,-0.3865398 0.124089,-0.086398 0.301298,-0.129191 0.530717,-0.129191 z m 8.778276,0 h 0.333313 v 0.5751586 c -0.02164,0.053567 -0.05199,0.1054354 -0.09095,0.1555462 -0.03751,0.050111 -0.08241,0.095133 -0.134359,0.1348756 -0.05194,0.038015 -0.109628,0.068826 -0.173115,0.093017 -0.06349,0.024191 -0.130945,0.03669 -0.203089,0.03669 -0.07359,0 -0.138548,-0.012499 -0.19482,-0.03669 -0.05483,-0.025919 -0.101602,-0.059298 -0.14056,-0.1007689 -0.03751,-0.043199 -0.06599,-0.094212 -0.08475,-0.1529622 -0.01876,-0.058751 -0.02791,-0.1217454 -0.02791,-0.1891359 0,-0.1727956 0.06195,-0.3018697 0.186035,-0.3865398 0.124089,-0.086398 0.300782,-0.129191 0.530201,-0.129191 z"
       id="text6043"
       inkscape:connector-curvature="0" />
  </g>
</svg>
